<?xml version="1.0" encoding="utf-8"?>
<!-- Generator: Adobe Illustrator 26.5.0, SVG Export Plug-In . SVG Version: 6.00 Build 0)  -->
<svg version="1.1" id="Layer_1" xmlns="http://www.w3.org/2000/svg" xmlns:xlink="http://www.w3.org/1999/xlink" x="0px" y="0px"
	 viewBox="0 0 1447.7 260.4" style="enable-background:new 0 0 1447.7 260.4;" xml:space="preserve">
<style type="text/css">
	.st0{fill:#F4DB12;}
	.st1{fill:none;}
	.st2{opacity:0.1;enable-background:new    ;}
	.st3{fill:#E5242A;}
	.st4{opacity:0.1;}
	.st5{display:none;fill:#E5242A;}
	.st6{opacity:0.64;fill:url(#SVGID_1_);enable-background:new    ;}
	.st7{fill:#FFFFFF;}
</style>
<g>
	<path class="st0" d="M248.6,138.4c10-8.5,29.8-14.3,52.5-14.3c3.2,0,6.4,0.1,9.5,0.3v-20.7c-3.1,0.2-6.3,0.3-9.5,0.3
		c-22.7,0-42.5-5.8-52.5-14.3V138.4z"/>
</g>
<path class="st1" d="M248.6,138.4c10-8.5,29.8-14.3,52.5-14.3c3.2,0,6.4,0.1,9.5,0.3v-20.7c-3.1,0.2-6.3,0.3-9.5,0.3
	c-22.7,0-42.5-5.8-52.5-14.3V138.4z"/>
<path class="st2" d="M296.6,120.9c-15,0-21.9,2.9-22.8,2.1c-10-9.3-13.4-20.3-14.6-26.7c-4.2-1.9-7.8-4.1-10.6-6.5v48.6
	c9.7-8.3,28.7-14,50.6-14.3C301.2,121.8,302.1,120.9,296.6,120.9z"/>
<g>
	<g>
		<ellipse class="st3" cx="309.6" cy="114.1" rx="20" ry="20.5"/>
	</g>
</g>
<path class="st2" d="M328.5,120.9c-2.9,1.7-6.3,2.7-9.8,2.7c-11,0-20-9.2-20-20.5c0-2.4,0.4-4.7,1.2-6.8
	c-6.1,3.5-10.2,10.2-10.2,17.8c0,11.3,9,20.5,20,20.5C318.4,134.6,325.7,128.9,328.5,120.9z"/>
<path class="st3" d="M105.3,176.7c0,0,35.4,15,4.4,63c-5.2,8.3,21.3,25.4,44.5,19.5c0,0-9.3-11.7-7.7-20.7
	c1-5.4,21.3-46.9,21.3-46.9L105.3,176.7z"/>
<path class="st3" d="M250.5,203.2c-113.2,24-182.7-42.1-178.8-89.6C75.5,33.1,189,5.2,250.5,25.9V203.2z"/>
<path class="st3" d="M233.5,115.8c0,37.8-30.7,68.5-68.5,68.5s-68.5-30.7-68.5-68.5s30.7-68.5,68.5-68.5S233.5,78,233.5,115.8z"/>
<path class="st0" d="M151.8,200.9c-26.8,19.9,2.5,58.4,2.5,58.4c0-54.3,36-51.1,36-51.1s-0.2,0,0-0.3
	C176.4,206.9,163.5,204.5,151.8,200.9z"/>
<path class="st2" d="M117.1,239.1c14.8-24.9,12.9-40.3,7.8-49.3c-3.7-2-7.2-4-10.5-6.2c7.8,8.5,14.9,25.7-4.8,56.2
	c-5.2,8.3,21.3,25.4,44.5,19.5c0,0-0.5-0.6-1.2-1.6C135.1,263.1,111.2,249.1,117.1,239.1z"/>
<g class="st4">
	<path class="st5" d="M250.5,203.2c-113.2,24-182.7-42.1-178.8-89.6C75.5,33.1,189,5.2,250.5,25.9V203.2z"/>
</g>
<circle class="st3" cx="165" cy="115.8" r="53.1"/>
<path class="st2" d="M111.4,155.7c0.2,0.1,0.5,0.3,0.7,0.4c0.1,0.1,0.3,0.2,0.4,0.2v-14.5v-0.1L86.4,126l-1.1-0.6l0,0l0,0l0,0
	c-3.8,1.2-8,2.7-12.4,4.2c1.1,4.6,2.7,9.2,4.9,13.8c3.3,0.7,6.6,1.5,9.7,2.5c9.9,3,18.4,6.9,23.7,9.8
	C111.2,155.6,111.3,155.7,111.4,155.7z"/>
<path class="st2" d="M250.5,203.2V71.8c-17.8-11-54.3-23.8-78-24.4c-7.6-0.2-14.1,4.1-20.3,15.8c1.5-20,18.4-37.7,33.3-42.6
	c-41,4.6-82.9,22.9-102.5,55.5c17.6,0.7,25.8,5,27.9,7.6c7.2,0.9-13.5,18.1-3.7,18.4c-8.8,26.1,19.4,46.5,16.3,67.8
	c7.2,6.6,20.4,17.3,35.2,26.4c-24.4-6.6-50.7-19.5-75.3-43.1C107.5,189.8,167.1,220.9,250.5,203.2z"/>
<path class="st0" d="M246.5,24.6c1.2,0.3,2.5,0.6,3.7,1c0,0-89.6-56.6-217-1.5L83,75.9C113,26.1,195.4,9.7,246.5,24.6z"/>
<path class="st2" d="M115.4,43.9c-9.1,2.3-40.4,7-81.7-20c-0.2,0.1-0.4,0.2-0.6,0.2L83,75.9C90.8,63,102.1,52.4,115.4,43.9z"/>
<path class="st2" d="M76.1,68.8L83,76c30-49.9,112.4-66.3,163.5-51.4c1.2,0.3,2.5,0.6,3.7,1c0,0-0.4-0.3-1.2-0.7
	C196.6,8.2,111.1,22.2,76.1,68.8z"/>
<path class="st0" d="M165,47.3c-26.8,0-49.9,15.4-61.2,37.7c-37.4,6-52,9.7-52,9.7s8.8,9.5,19.3,18c0,0-42.1-0.4-71.1,14.4l0,0
	c0.3,0,62-4,102.6,17.2c10.8,23.6,34.6,40.1,62.3,40.1c37.8,0,68.5-30.7,68.5-68.5C233.5,78,202.8,47.3,165,47.3z M165,168.9
	c-29.3,0-53.1-23.8-53.1-53.1s23.8-53.1,53.1-53.1s53.1,23.8,53.1,53.1S194.3,168.9,165,168.9z"/>
<radialGradient id="SVGID_1_" cx="679.1601" cy="-557.5815" r="1" gradientTransform="matrix(2.000000e-15 40.5 -40.5 2.000000e-15 -22416.0527 -27387.1836)" gradientUnits="userSpaceOnUse">
	<stop  offset="0" style="stop-color:#FFFFFF"/>
	<stop  offset="1" style="stop-color:#FFFFFF;stop-opacity:0"/>
</radialGradient>
<path class="st6" d="M206.5,118.8c0,22.4-18.1,40.5-40.5,40.5s-40.5-18.1-40.5-40.5s18.1-40.5,40.5-40.5S206.5,96.4,206.5,118.8z"/>
<path class="st7" d="M190.5,111.1l-23.8-2.7l9.5-37.1l-40.7,47.2l24.5,2.7l-10.8,39.1L190.5,111.1z"/>
<path class="st2" d="M101.1,138.1c0,0-32-18.2-100.9-11.2C0.1,126.9,0,127,0,127l0,0c0.3,0,62-4,102.6,17.2c0,0,0,0.1,0.1,0.1
	L101.1,138.1z"/>
<path class="st7" d="M545.1,208.4h-39.8c-7.4,0-12.7-2.8-15.9-8.3l-31.5-55c-1.5-2.3-3.1-4-4.9-5.1s-4.4-1.6-7.8-1.6H434v70.1h-43.9
	V19h61.6c13.7,0,25.4,1.4,35,4.2c9.7,2.8,17.6,6.7,23.7,11.8c6.1,5,10.6,11,13.3,17.8c2.8,6.8,4.2,14.3,4.2,22.4
	c0,6.2-0.8,12-2.5,17.4c-1.6,5.5-4.1,10.5-7.3,15.1s-7.2,8.8-11.9,12.4c-4.7,3.6-10.2,6.6-16.3,9c2.9,1.5,5.5,3.3,8.1,5.5
	c2.5,2.2,4.8,4.8,6.8,7.9L545.1,208.4z M451.8,108c6,0,11.1-0.8,15.3-2.3c4.2-1.5,7.6-3.6,10.3-6.3c2.7-2.7,4.6-5.8,5.9-9.4
	c1.2-3.6,1.8-7.5,1.8-11.6c0-8.3-2.7-14.8-8.1-19.5s-13.8-7-25.2-7h-17.7V108H451.8z"/>
<path class="st7" d="M828.2,136.4v72h-43.9v-72L715.7,19h38.7c3.8,0,6.8,0.9,9,2.7c2.2,1.8,4.1,4.1,5.5,6.8l26.8,55.1
	c2.3,4.3,4.3,8.4,6.1,12.2c1.8,3.8,3.4,7.5,4.8,11.1c1.3-3.7,2.8-7.5,4.5-11.2c1.7-3.8,3.7-7.8,5.9-12l26.5-55.1
	c0.6-1.1,1.3-2.3,2.2-3.4s1.9-2.1,3.1-3.1s2.5-1.6,4-2.2s3.2-0.8,5-0.8h39L828.2,136.4z"/>
<path class="st7" d="M990.7,110.2h67.3v80c-9.7,7.1-20,12.3-31,15.5s-22.4,4.8-34.4,4.8c-15.6,0-29.8-2.4-42.6-7.3
	c-12.8-4.9-23.7-11.7-32.8-20.3s-16.1-18.8-21.1-30.7c-4.9-11.8-7.4-24.7-7.4-38.5c0-14.1,2.3-27.1,7-38.9s11.4-22,20.1-30.6
	c8.7-8.6,19.2-15.3,31.6-20c12.3-4.8,26.1-7.2,41.4-7.2c7.9,0,15.3,0.7,22.2,2s13.3,3.1,19.2,5.3c5.8,2.3,11.2,4.9,16.1,8.1
	c4.9,3.1,9.2,6.5,13,10.1l-12.7,19.4c-2,3-4.6,4.9-7.7,5.6c-3.2,0.7-6.6-0.1-10.2-2.3c-3.5-2.1-6.7-3.9-9.8-5.4s-6.2-2.8-9.4-3.7
	c-3.2-1-6.6-1.6-10.1-2.1c-3.6-0.4-7.5-0.7-12-0.7c-8.2,0-15.6,1.5-22.2,4.4c-6.6,2.9-12.2,7-16.8,12.3s-8.2,11.6-10.7,19
	s-3.8,15.7-3.8,24.8c0,10.1,1.4,19,4.2,26.8s6.7,14.4,11.8,19.8c5.1,5.4,11.1,9.5,18.2,12.3c7.1,2.8,14.9,4.2,23.5,4.2
	c5.3,0,10.1-0.5,14.4-1.6c4.3-1,8.5-2.4,12.5-4.2v-28.7h-18.7c-2.8,0-4.9-0.7-6.5-2.2s-2.3-3.3-2.3-5.6v-24.4H990.7z"/>
<path class="st7" d="M1166.6,173.7c5.9,0,11.2-1,15.8-2.9c4.6-1.9,8.6-4.7,11.8-8.4c3.2-3.6,5.7-8.1,7.3-13.3
	c1.7-5.2,2.5-11.2,2.5-17.9V19h43.9v112.2c0,11.6-1.9,22.3-5.7,32c-3.8,9.7-9.2,18.1-16.2,25.1s-15.6,12.5-25.6,16.4
	c-10.1,3.9-21.4,5.8-33.9,5.8c-12.7,0-24-1.9-34.1-5.8c-10.1-3.9-18.6-9.4-25.6-16.4s-12.4-15.4-16.1-25.1c-3.7-9.7-5.6-20.4-5.6-32
	V19h43.9v112c0,6.7,0.8,12.6,2.5,17.9c1.7,5.2,4.1,9.7,7.3,13.4c3.2,3.7,7.1,6.5,11.8,8.4C1155.5,172.7,1160.7,173.7,1166.6,173.7z"
	/>
<path class="st7" d="M1447.7,19v189.4h-22.9c-3.4,0-6.2-0.5-8.5-1.6s-4.6-3-6.8-5.7l-89.3-113c0.3,3.4,0.6,6.7,0.7,9.8
	c0.1,3.2,0.2,6.1,0.2,8.9v101.5h-38.7V19h23.1c1.9,0,3.5,0.1,4.8,0.3c1.3,0.2,2.5,0.5,3.5,1s2,1.1,3,2s2,2,3.2,3.5l90.1,113.8
	c-0.4-3.6-0.7-7.2-0.9-10.6c-0.2-3.4-0.3-6.7-0.3-9.7V19H1447.7z"/>
<g>
	<path class="st7" d="M712.8,129.7h-41.5l2.1,6.3h-0.1l15.8,46.7l0,0l5.5,16.2c1.2,2.8,3,5.1,5.3,6.8c2.3,1.8,5.4,2.7,9.2,2.7h34.1
		L712.8,129.7z"/>
	<polygon class="st7" points="633.1,99.7 647.3,56.7 661.4,99.7 701.1,99.7 669.9,19 624.9,19 593.7,99.7 	"/>
	<path class="st7" d="M582.1,129.7l-30.5,78.7h34.3c3.6,0,6.7-1,9.2-2.9c2.5-2,4.2-4.1,5.1-6.6l6.4-18.8l16.6-50.4L582.1,129.7
		L582.1,129.7z"/>
</g>
</svg>
