<svg width="153" height="28" viewBox="0 0 153 28" fill="none" xmlns="http://www.w3.org/2000/svg">
<path d="M20.8632 1.74207C20.8632 1.74207 14.2407 -1.71814 5.55981 1.4759L7.79715 3.87143L5.64931 5.02484L8.4236 8.21888L20.8632 1.74207Z" fill="#F4DB12"/>
<path d="M27.0381 8.21887V10.5257V12.1227V14.4295C27.0381 14.4295 28.828 12.1227 32.4077 12.1227V10.5257C28.828 10.5257 27.0381 8.21887 27.0381 8.21887Z" fill="#F4DB12"/>
<path d="M12.7191 19.5755C12.7191 19.5755 17.1043 21.35 14.9565 26.4959C14.5985 27.3832 17.1043 28.3591 19.2521 27.3832C19.3416 27.2944 18.1782 26.6734 18.1782 25.7861C18.1782 25.2538 19.2521 21.4387 19.2521 21.4387L12.7191 19.5755Z" fill="#DF282B"/>
<path d="M19.1627 27.2944C19.1627 27.2944 15.583 25.6087 17.9993 20.9951C20.3261 16.6476 21.6685 21.8823 21.6685 21.8823C21.6685 21.8823 17.9993 24.6327 19.1627 27.2944Z" fill="#D3D2D3"/>
<path d="M33.8396 13.4536C35.0753 13.4536 36.077 12.4605 36.077 11.2355C36.077 10.0105 35.0753 9.0174 33.8396 9.0174C32.604 9.0174 31.6023 10.0105 31.6023 11.2355C31.6023 12.4605 32.604 13.4536 33.8396 13.4536Z" fill="#C02123"/>
<path d="M25.5167 1.12101C24.9797 1.12101 24.4428 1.03229 23.9058 1.03229C14.509 1.03229 7.797 4.75867 7.797 11.6791C7.797 18.5995 14.509 22.3259 23.9058 22.3259C24.4428 22.3259 24.9797 22.3259 25.5167 22.2372V1.12101Z" fill="#DF282B"/>
<path d="M7.797 11.6791C7.797 18.5995 14.509 22.3259 23.8163 22.3259C24.3533 22.3259 24.8902 22.3259 25.4272 22.2372V11.7678" fill="#C02123"/>
<path d="M17.1985 17.0912C20.164 17.0912 22.5681 14.7078 22.5681 11.7678C22.5681 8.82777 20.164 6.4444 17.1985 6.4444C14.2329 6.4444 11.8289 8.82777 11.8289 11.7678C11.8289 14.7078 14.2329 17.0912 17.1985 17.0912Z" fill="#DF282B"/>
<path d="M17.6458 6.62188C20.3306 6.62188 22.568 8.92869 22.568 11.6791C22.568 14.4295 20.3306 16.7364 17.6458 16.7364C14.961 16.7364 12.7237 14.5183 12.7237 11.6791C12.7237 8.83997 14.961 6.62188 17.6458 6.62188ZM17.6458 4.84741C13.9766 4.84741 10.9338 7.95273 10.9338 11.6791C10.9338 15.4942 13.9766 18.5108 17.6458 18.5108C21.3151 18.5108 24.3578 15.4942 24.3578 11.6791C24.3578 7.95273 21.3151 4.84741 17.6458 4.84741Z" fill="#F4DB12"/>
<path d="M20.4691 11.2722L18.2308 10.908L19.1067 6.35571L15.4086 12.1826L17.6469 12.5468L16.6737 17.3722L20.4691 11.2722Z" fill="white"/>
<path d="M12.6341 8.21887C12.6341 8.21887 6.81707 9.19483 3.95328 12.2114L6.81707 13.1874C6.81707 13.1874 2.96885 14.1633 1 16.204C1 16.204 7.712 13.1874 13.5291 16.204L11.3812 13.3648L11.7392 12.655L11.2022 11.7678L12.6341 8.21887Z" fill="#F4DB12"/>
<path d="M25.5167 22.2371C26.5012 22.1484 27.3961 22.0597 28.291 21.9709V1.47583C27.3961 1.29838 26.4117 1.20966 25.5167 1.20966V22.2371Z" fill="#D3D2D3"/>
<path d="M35.9875 10.6144C35.719 9.72718 34.8241 9.0174 33.8396 9.0174C32.5867 9.0174 31.6023 9.99335 31.6023 11.2355C31.6023 11.5017 31.6918 11.7678 31.7813 12.034C32.2287 12.3889 32.8552 12.6551 33.4817 12.6551C34.6451 12.6551 35.6295 11.7678 35.9875 10.6144Z" fill="#DF282B"/>
<path d="M59.8375 7.22691C59.8375 3.01433 57.0869 1.01514 51.3685 1.01514C49.0522 1.01514 46.8083 1.15794 45.5054 1.22934C45.5054 1.22934 45.071 1.30074 45.071 1.72913V22.0066C45.071 22.0066 45.071 22.435 45.5054 22.435H48.9074C48.9074 22.435 49.3417 22.435 49.3417 22.0066V14.2955C49.3417 14.2955 49.3417 13.8671 49.7761 13.8671H51.7304C51.7304 13.8671 52.1648 13.8671 52.3095 14.2241L55.9288 22.0066C55.9288 22.0066 56.0735 22.3636 56.5078 22.3636H60.2719C60.2719 22.3636 60.7062 22.3636 60.489 22.0066L56.0735 13.1531C56.0735 13.1531 55.8564 12.7961 55.8564 12.7247C55.8564 12.7247 55.8564 12.7247 56.2183 12.5819C58.1727 12.0821 59.8375 10.0115 59.8375 7.22691ZM55.4945 7.44111C55.4945 9.4403 53.9744 10.6541 51.7304 10.6541H49.7037C49.7037 10.6541 49.2694 10.6541 49.2694 10.2257V4.79932C49.2694 4.79932 49.2694 4.37092 49.5589 4.37092C49.8484 4.37092 50.5723 4.29952 51.6581 4.29952C54.0468 4.29952 55.4945 5.08492 55.4945 7.44111Z" fill="#062A47"/>
<path d="M151.911 22.2893C151.911 22.2893 152.345 22.2893 152.345 21.8522V1.45228C152.345 1.45228 152.345 1.01514 151.911 1.01514H148.726C148.726 1.01514 148.292 1.01514 148.292 1.45228V9.24795C148.292 9.24795 148.292 9.68509 148.292 10.0494L148.436 15.5865V16.0236C148.436 16.0236 148.436 16.0236 148.219 15.6594C146.12 10.9965 143.225 5.9694 140.691 1.45228C140.691 1.45228 140.474 1.08799 140.112 1.08799H136.131C136.131 1.08799 135.697 1.08799 135.697 1.52513V21.9979C135.697 21.9979 135.697 22.435 136.131 22.435H139.316C139.316 22.435 139.75 22.435 139.75 21.9979V13.7651C139.75 13.7651 139.75 13.3279 139.75 12.9637L139.678 7.42653C139.678 7.42653 139.678 6.98939 139.75 6.98939C139.75 6.98939 139.678 6.98939 139.75 6.98939C139.75 6.98939 139.823 6.98939 139.967 7.35368C141.415 10.4137 143.659 14.4936 147.713 21.925C147.713 21.925 147.93 22.2893 148.292 22.2893H151.911Z" fill="#062A47"/>
<path d="M123.825 22.435C129.616 22.435 132.295 19.2934 132.295 13.0817V1.44353C132.295 1.44353 132.295 1.01514 131.86 1.01514H128.386C128.386 1.01514 127.951 1.01514 127.951 1.44353V13.8671C127.951 17.2943 126.576 19.0079 123.825 19.0079C121.292 19.0079 119.844 17.0801 119.844 13.8671V1.44353C119.844 1.44353 119.844 1.01514 119.41 1.01514H115.936C115.936 1.01514 115.501 1.01514 115.501 1.44353V13.7243C115.646 19.6504 118.614 22.435 123.825 22.435Z" fill="#062A47"/>
<path d="M91.3247 1.01514C91.3247 1.01514 90.8904 1.01514 90.7456 1.37214L88.7188 6.15591L86.9816 10.8683C86.9816 10.8683 86.9816 10.8683 86.8368 10.5113L85.2444 6.15591L83.29 1.37214C83.29 1.37214 83.1452 1.01514 82.7109 1.01514H78.585C78.585 1.01514 78.1507 1.01514 78.3678 1.37214L84.5929 13.7957C84.5929 13.7957 84.8101 14.1527 84.8101 14.5811V22.0066C84.8101 22.0066 84.8101 22.435 85.2444 22.435H88.936C88.936 22.435 89.3703 22.435 89.3703 22.0066V14.5811C89.3703 14.5811 89.3703 14.1527 89.5875 13.7957L95.8849 1.37214C95.8849 1.37214 96.1021 1.01514 95.6678 1.01514H91.3247Z" fill="#062A47"/>
<path d="M108.842 13.5101C108.842 13.5101 108.408 13.5101 108.408 13.9385V18.3653C108.408 18.3653 108.408 18.7937 108.191 18.8651C107.974 18.9365 107.177 19.0793 106.236 19.0793C102.328 19.0793 99.7941 16.3661 99.7941 11.7965C99.7941 7.08411 102.4 4.58512 106.381 4.58512C108.408 4.58512 110.507 4.94212 111.81 5.44192L111.955 2.44313C111.955 2.44313 111.955 2.01473 111.593 1.87193C110.869 1.44353 108.77 1.01514 106.454 1.01514C99.577 1.01514 95.5234 5.44192 95.5234 11.8679C95.5234 18.0797 98.9979 22.435 106.092 22.435C108.553 22.435 111.159 21.8638 112.244 21.5068C112.244 21.5068 112.606 21.364 112.606 20.9356V13.8671C112.606 13.8671 112.606 13.4387 112.172 13.4387H108.842V13.5101Z" fill="#062A47"/>
<path d="M61.357 22.0782C61.357 22.0782 61.2123 22.4352 61.6466 22.4352H65.3382C65.3382 22.4352 65.7725 22.4352 65.8449 22.0782L67.944 13.9387H63.8181L61.357 22.0782Z" fill="#062A47"/>
<path d="M69.1023 9.58322L70.4052 4.58524H70.4776L71.7805 9.58322L72.07 10.7256H76.3407L73.5177 1.44366C73.5177 1.44366 73.373 1.01526 73.011 1.01526H68.2336C68.2336 1.01526 67.7993 1.01526 67.7269 1.44366L64.9039 10.7256H68.8851L69.1023 9.58322Z" fill="#062A47"/>
<path d="M79.8153 22.0782L77.2818 13.9387H72.9387L75.1103 22.0068L75.1826 22.221C75.1826 22.221 75.255 22.4352 75.6893 22.4352H79.5257C79.5257 22.4352 79.9601 22.4352 79.8153 22.0782Z" fill="#062A47"/>
</svg>
